<?xml version="1.0" standalone="no"?>
<!DOCTYPE svg PUBLIC "-//W3C//DTD SVG 20010904//EN"
 "http://www.w3.org/TR/2001/REC-SVG-20010904/DTD/svg10.dtd">
<svg version="1.0" xmlns="http://www.w3.org/2000/svg"
 width="512.000000pt" height="512.000000pt" viewBox="0 0 512.000000 512.000000"
 preserveAspectRatio="xMidYMid meet">
<metadata>
Created by potrace 1.11, written by Peter Selinger 2001-2013
</metadata>
<g transform="translate(0.000000,512.000000) scale(0.100000,-0.100000)"
fill="#000000" stroke="none">
<path d="M2487 4803 c-1 -1 -34 -4 -72 -7 -39 -3 -81 -8 -95 -11 -14 -4 -36
-8 -50 -11 -84 -18 -263 -118 -330 -185 -38 -38 -102 -119 -132 -165 -25 -39
-86 -173 -93 -204 -2 -8 -9 -35 -15 -60 -6 -25 -14 -143 -17 -263 l-6 -218 42
6 41 5 1 -58 c1 -161 47 -554 75 -652 23 -80 70 -163 122 -219 l47 -50 -1
-118 c-1 -206 -18 -267 -106 -398 l-41 -60 -141 -54 c-78 -29 -214 -82 -303
-117 -90 -35 -168 -64 -173 -64 -6 0 -18 -5 -28 -10 -9 -6 -111 -46 -226 -91
-249 -95 -306 -124 -385 -195 -91 -83 -169 -212 -188 -314 -2 -13 -11 -56 -19
-95 -9 -38 -18 -81 -20 -95 -6 -28 -53 -251 -62 -290 -12 -54 -3 -149 18 -196
56 -127 135 -180 315 -209 22 -4 49 -9 60 -10 54 -10 305 -46 345 -51 25 -3
54 -7 65 -9 11 -2 33 -4 48 -4 20 -1 26 -5 21 -14 -6 -9 -5 -9 8 0 8 7 17 11
19 9 2 -2 33 -7 69 -10 36 -4 76 -9 90 -11 14 -2 57 -7 95 -10 39 -4 90 -8
115 -11 70 -6 167 -14 260 -20 47 -3 105 -7 130 -9 106 -9 474 -19 705 -18
325 0 650 14 900 39 28 2 79 6 115 9 36 2 74 6 85 8 11 3 52 8 90 12 80 8 100
10 210 25 44 6 96 14 115 16 30 5 281 46 365 61 52 9 119 46 165 93 114 114
121 199 43 565 -55 255 -74 313 -136 412 -45 73 -154 177 -223 215 -39 20
-644 258 -658 258 -2 0 -21 8 -42 17 -22 9 -41 17 -44 18 -40 9 -128 50 -123
58 4 6 1 7 -6 3 -7 -5 -68 13 -138 40 -123 47 -127 49 -158 99 -87 136 -107
209 -110 395 l-1 135 48 54 c88 101 123 195 143 391 3 30 8 62 10 70 2 8 7 42
10 75 3 33 8 74 10 90 2 17 7 89 10 160 3 72 9 137 12 145 3 8 8 24 10 34 2
11 17 67 34 125 27 94 30 115 24 183 -12 142 -48 245 -112 318 -21 25 -53 74
-70 110 -18 36 -54 90 -82 121 -28 31 -47 60 -43 64 4 5 2 5 -5 2 -6 -4 -35 9
-65 28 -107 71 -233 104 -431 113 -76 4 -139 6 -140 5z m667 -967 l58 -89 -5
-101 c-11 -225 -26 -378 -36 -372 -3 2 -6 -17 -6 -42 0 -158 -46 -295 -123
-368 -92 -87 -315 -265 -350 -279 -55 -23 -221 -18 -272 8 -39 19 -309 242
-353 291 -56 63 -85 146 -102 295 -4 30 -8 61 -10 70 -1 9 -6 47 -10 86 -4 38
-8 72 -10 75 -2 3 -7 71 -10 151 l-7 146 123 12 c104 11 212 25 419 56 28 5
192 43 245 58 105 30 222 82 289 131 l49 35 27 -37 c14 -20 52 -77 84 -126z
m-188 -1299 c0 -52 10 -147 20 -201 9 -49 54 -148 101 -219 l44 -69 -33 -51
c-71 -111 -195 -245 -283 -307 -22 -15 -69 -40 -104 -55 -220 -92 -440 17
-667 331 -58 79 -59 66 11 174 35 54 67 118 71 140 0 3 6 23 12 45 14 48 25
144 25 203 0 47 4 50 33 25 61 -55 120 -97 171 -121 52 -24 72 -27 179 -29
175 -4 227 17 379 151 22 19 40 35 40 36 0 0 0 -24 1 -53z m-1413 -1076 l47
-1 0 -50 0 -50 -40 0 -40 0 0 -132 c0 -151 -4 -161 -79 -199 -43 -22 -44 -23
-20 -32 56 -22 73 -34 91 -62 10 -16 18 -39 17 -50 -1 -11 -1 -71 0 -132 l1
-113 40 0 40 0 0 -44 c0 -53 -6 -56 -110 -63 -69 -4 -77 -2 -105 20 l-30 25
-5 166 c-4 133 -8 169 -20 176 -18 12 -108 40 -127 40 -8 0 -13 13 -13 38 0
37 2 39 43 51 23 7 59 22 79 33 l37 21 3 152 c3 136 5 155 23 175 25 28 49 37
89 34 17 -1 52 -3 79 -3z m2173 -16 c37 -24 43 -50 43 -201 1 -159 1 -159 98
-189 51 -16 53 -18 53 -54 0 -36 -1 -36 -52 -49 -29 -6 -64 -20 -78 -31 -24
-18 -25 -22 -30 -174 -5 -151 -6 -157 -30 -181 -29 -28 -68 -34 -152 -22 l-58
8 0 44 0 44 40 0 40 0 0 139 c0 157 6 172 81 209 l41 20 -45 20 c-67 30 -77
56 -77 207 l0 125 -40 0 -40 0 0 49 c0 49 1 50 33 53 71 7 148 0 173 -17z
m-1486 -405 l0 -401 -77 3 c-77 3 -78 3 -81 31 -2 15 -5 27 -7 27 -1 0 -23
-11 -46 -25 -78 -44 -179 -42 -234 3 -87 72 -117 239 -63 350 26 54 96 114
151 128 41 11 122 12 162 2 11 -3 23 0 27 6 4 6 8 71 8 144 l0 132 80 0 79 0
1 -400z m838 133 c20 -52 42 -135 37 -143 -3 -5 -1 -10 5 -12 5 -1 17 -34 26
-73 31 -136 24 -143 78 75 2 8 14 52 27 98 l22 82 89 0 c48 0 88 -3 88 -8 0
-4 -10 -36 -23 -72 -13 -36 -57 -159 -98 -273 l-74 -208 -85 3 -85 3 -37 105
c-20 58 -63 181 -97 274 -34 93 -61 171 -61 173 0 1 40 3 89 3 87 0 89 0 99
-27z m-328 -27 c25 -13 44 -28 43 -35 -2 -6 2 -10 9 -8 21 4 49 -92 46 -157
l-3 -61 -157 -3 c-118 -2 -157 -6 -161 -16 -8 -21 22 -72 51 -86 31 -14 132
-14 182 0 48 14 46 15 60 -35 12 -42 11 -47 -6 -60 -34 -26 -97 -39 -194 -39
-75 -1 -103 3 -135 19 -82 41 -136 153 -131 269 5 88 36 143 119 206 56 42
201 46 277 6z"/>
<path d="M1942 1055 c3 -3 -7 -20 -23 -38 -34 -37 -44 -79 -36 -150 9 -71 40
-99 108 -96 27 2 49 6 49 10 0 5 6 6 14 3 12 -5 15 14 18 105 4 152 3 154 -57
158 -28 2 -57 6 -65 9 -8 3 -12 2 -8 -1z"/>
<path d="M2585 1060 c-29 -11 -53 -41 -59 -73 l-5 -27 80 0 c75 0 79 1 79 23
-1 55 -48 94 -95 77z"/>
</g>
</svg>
